<!DOCTYPE svg PUBLIC "-//W3C//DTD SVG 1.1//EN" "http://www.w3.org/Graphics/SVG/1.1/DTD/svg11.dtd">
<!-- Uploaded to: SVG Repo, www.svgrepo.com, Transformed by: SVG Repo Mixer Tools -->
<svg fill="#ffffff" height="800px" width="800px" version="1.1" id="Layer_1" xmlns="http://www.w3.org/2000/svg" xmlns:xlink="http://www.w3.org/1999/xlink" viewBox="0 0 511.042 511.042" xml:space="preserve" stroke="#ffffff">
<g id="SVGRepo_bgCarrier" stroke-width="0"/>
<g id="SVGRepo_tracerCarrier" stroke-linecap="round" stroke-linejoin="round"/>
<g id="SVGRepo_iconCarrier"> <g> <g> <g> <path d="M334.98,209.282l0.785-3.942c-14.242,7.287-36.335,15.565-63.181,15.565c-4.71,0-8.533-3.814-8.533-8.533 c0-26.837,8.277-48.93,15.573-63.172l-3.934,0.785c-3.106,0.631-6.34-0.538-8.346-3.038l-11.827-14.78l-11.819,14.78 c-2.005,2.5-5.231,3.669-8.346,3.038l-3.934-0.785c7.296,14.242,15.565,36.335,15.565,63.172c0,4.719-3.814,8.533-8.533,8.533 c-26.837,0-48.93-8.277-63.172-15.565l0.785,3.942c0.623,3.123-0.546,6.34-3.038,8.337l-14.78,11.819l14.78,11.827 c2.492,1.988,3.661,5.205,3.038,8.337l-0.785,3.942c14.242-7.287,36.335-15.573,63.172-15.573c4.719,0,8.533,3.823,8.533,8.533 c0,26.837-8.269,48.93-15.565,63.181l3.934-0.794c0.563-0.111,1.118-0.162,1.672-0.162c2.56,0,5.026,1.152,6.673,3.2 l11.819,14.788l11.827-14.788c2.005-2.5,5.231-3.669,8.346-3.038l3.934,0.794c-7.296-14.251-15.573-36.344-15.573-63.181 c0-4.71,3.823-8.533,8.533-8.533c26.846,0,48.939,8.286,63.181,15.573l-0.785-3.942c-0.623-3.132,0.538-6.349,3.029-8.337 l14.788-11.827l-14.788-11.819C335.518,215.622,334.358,212.405,334.98,209.282z"/> <path d="M460.321,178.208V58.775c0-2.014-0.708-3.959-1.997-5.495c-10.556-12.535-39.083-24.951-87.245-37.965 c-75.597-20.42-155.52-20.42-231.117,0C91.809,28.329,63.274,40.745,52.718,53.28c-1.289,1.536-1.997,3.482-1.997,5.495v119.339 c-0.034,2.423-1.297,243.499,201.378,332.211c1.092,0.478,2.253,0.717,3.422,0.717c1.169,0,2.338-0.239,3.422-0.717 C460.1,422.27,460.364,184.147,460.321,178.208z M259.472,462.786c-1.237,0.649-2.594,0.973-3.951,0.973 c-1.357,0-2.714-0.324-3.951-0.973C93.183,380.055,93.303,186.861,93.388,178.677V81.73c0-3.388,2.005-6.451,5.111-7.817 c12.621-5.53,30.31-11.383,52.591-17.399c68.062-18.389,140.8-18.389,208.862,0c22.255,6.008,39.953,11.861,52.591,17.399 c3.106,1.365,5.111,4.429,5.111,7.817v96.512C417.732,186.366,417.749,380.115,259.472,462.786z"/> <path d="M400.589,87.418c-8.917-3.567-23.177-8.516-45.082-14.43c-65.169-17.604-134.801-17.604-199.97,0 c-21.922,5.922-36.173,10.871-45.082,14.43v91.341c-0.077,7.774-0.196,187.708,145.067,266.795 c145.169-79.044,145.143-259.524,145.067-267.23V87.418z M371.789,236.102l-19.055,15.249l3.593,18.014 c0.708,3.516-0.862,7.091-3.917,8.96c-3.063,1.86-6.946,1.621-9.754-0.606c-0.247-0.196-25.139-19.465-61.184-22.323 c2.842,36.241,22.127,60.919,22.332,61.184c2.227,2.799,2.466,6.699,0.606,9.754c-1.877,3.063-5.47,4.634-8.96,3.917 l-18.022-3.601l-15.24,19.055c-1.621,2.022-4.07,3.2-6.665,3.2c-2.594,0-5.043-1.178-6.665-3.2l-15.241-19.055l-18.022,3.601 c-3.55,0.717-7.091-0.862-8.96-3.917c-1.86-3.055-1.621-6.955,0.606-9.754c0.196-0.256,19.465-25.148,22.332-61.192 c-36.25,2.85-60.919,22.127-61.184,22.332c-2.816,2.236-6.69,2.466-9.754,0.606c-3.055-1.869-4.625-5.444-3.917-8.96 l3.593-18.014l-19.055-15.249c-2.022-1.613-3.2-4.07-3.2-6.665c0-2.586,1.178-5.043,3.2-6.665l19.055-15.241l-3.593-18.022 c-0.708-3.516,0.862-7.091,3.917-8.951c3.055-1.877,6.938-1.63,9.754,0.597c0.247,0.196,25.139,19.465,61.184,22.332 c-2.842-36.241-22.127-60.919-22.332-61.184c-2.227-2.807-2.466-6.707-0.606-9.762c1.877-3.055,5.487-4.608,8.96-3.917 l18.022,3.61l15.241-19.055c3.251-4.053,10.078-4.053,13.329,0l15.24,19.055l18.022-3.61c3.524-0.717,7.083,0.862,8.96,3.917 c1.86,3.055,1.621,6.955-0.606,9.762c-0.196,0.247-19.465,25.148-22.332,61.184c36.25-2.842,60.919-22.118,61.184-22.332 c2.807-2.227,6.699-2.466,9.754-0.597c3.055,1.86,4.625,5.436,3.917,8.951l-3.593,18.022l19.055,15.241 c2.022,1.621,3.2,4.079,3.2,6.665C374.989,232.032,373.811,234.49,371.789,236.102z"/> </g> </g> </g> </g>
</svg>